<?xml version="1.0" encoding="UTF-8"?>
<svg xmlns="http://www.w3.org/2000/svg" viewBox="0 0 1924.7 1081">
  <defs>
    <style>
      .cls-1 {
        fill: #0a6491;
      }

      .cls-2 {
        fill: #e07412;
      }

      .cls-3 {
        fill: #727272;
      }

      .cls-4 {
        fill: #d7f0f9;
      }

      .cls-5 {
        fill: #bedbe5;
      }

      .cls-6 {
        fill: #356a00;
      }

      .cls-7 {
        fill: #658751;
      }

      .cls-8 {
        fill: #f3fbff;
      }

      .cls-9 {
        stroke: #aa5a00;
        stroke-miterlimit: 10;
      }

      .cls-9, .cls-10 {
        fill: #aa5a00;
      }

      .cls-11 {
        fill: #0179c5;
      }

      .cls-12 {
        fill: #999;
      }

      .cls-13 {
        fill: #759b61;
      }
    </style>
  </defs>
  <g id="Layer_8" data-name="Layer 8">
    <path class="cls-13" d="m216.91,1023.37c-15.8-15.98-38.4-42.85-53.29-81.07-36.24-93.01-2.08-221.56,43.14-235.85,47.67-15.06,92.76,100.79,124.24,83.71,34.48-18.71-19.91-157.51,38.16-294.99,10.81-25.59,44.74-105.94,108.84-116.52,37.95-6.27,81.72,12.71,106,50.36,31.24,48.44,18.49,109.56,29,111.78,21.08,4.45,45.45-246.99,116-260.42,52.19-9.93,90.24,117.87,143,103.18,34.76-9.67,28.93-68.11,82-132.66,48.78-59.33,126.57-98.58,160.81-68.59,25.01,21.91,5.39,62.02,36.19,115.26,19.76,34.16,55.75,65.9,95,70.02,63.7,6.69,80.64-65.18,143.21-61.6,63.32,3.62,105.97,80.65,113.79,94.76,8.89,16.05,37.63,67.95,31,130.21-3.97,37.23-18.86,62.03-15,65.1,6.82,5.43,38.68-83.65,105-117.92,54.05-27.93,130.96-19.45,161,30.71,23.69,39.56-3.82,68.23,8,160.92,12.26,96.11,48.08,114.23,52.95,197.59,3.39,58.04-10.61,106.85-22.84,138.81-54.84.59-109.69,1.17-164.53,1.76-480.56,5.15-961.12,10.29-1441.68,15.44Z"/>
    <path class="cls-7" d="m230.12,989.24c-32.91-43.58-22.08-124.97,19.03-149.86,38.39-23.25,102.81,3,134.49,22.11,37.09,22.38,47.83,46.14,62.17,41.76,27.62-8.43,30.96-80.74,40.6-135.12,30.75-173.4,159.36-348.55,266.6-350.18,56.11-.85,66.14,46.42,139,42.99,62.32-2.93,78.8-38.64,141-60.19,105.05-36.4,143.47,66.57,249,38.08,64.14-17.31,78.02-58.03,115-45.45,53.3,18.13,99.71,128.33,86,208.82-28.31,166.25-300.88,112.88-896.37,336.66-151.71,57.01-305.68,117.67-356.51,50.36Z"/>
    <path class="cls-7" d="m716.04,918c-18.14,2.53-61.42,9.36-91.35-14.74-60.08-48.39-44.53-203.96,26.64-240.76,65.71-33.97,131.5,57.75,218.22,24.57,76.72-29.36,66.83-117.07,139.56-135.12,58.24-14.46,135.59,24.16,163.67,78.62,34.07,66.06-23.1,119.12,11.42,173.2,33.1,51.85,108.32,66.65,162.4,56.51,192.94-36.2,237.05-369.48,334.4-351.4,72.87,13.53,124.85,214.49,102.04,366.14-5.79,38.47-8.38,86.1-39.33,114.24-58.05,52.77-147.04,33.2-288,12.28-432.31-64.16-648.47-96.24-739.67-83.53Z"/>
  </g>
  <g id="Layer_1" data-name="Layer 1">
    <path class="cls-9" d="m169.5,1027.5c14.03-6.84,26.71-5.92,34-6,50.15-.58,91.34-51.64,107-67,37.11-36.4,91.11-29.43,335-19,194.64,8.33,263.25,8.3,351-2,41.95-4.92,40.45-6.58,104-16,89.17-13.22,436.79-62.96,578,4,14.02,6.65,42.27,22.16,87,37,49.04,16.27,64.78,14.12,89,28,22.43,12.86,50.07,38.28,69.5,94H130c5.9-18.4,17.03-42.05,39.5-53Z"/>
    <rect class="cls-6" x="1474.95" y="867.13" width="24.55" height="1.16"/>
    <rect class="cls-6" x="989.6" y="722.14" width="133.14" height="237.79"/>
    <rect class="cls-11" x="1040.59" y="732.58" width="65.16" height="227.35"/>
  </g>
  <g id="Layer_6" data-name="Layer 6">
    <rect class="cls-3" x="1562.77" y="946.01" width="196.41" height="34.8"/>
    <rect class="cls-3" x="296.5" y="946.01" width="232.29" height="34.8"/>
    <rect class="cls-12" x="528.79" y="959.93" width="1033.98" height="34.8"/>
  </g>
  <g id="Layer_4" data-name="Layer 4">
    <path class="cls-5" d="m296.5,609.63c39.66-22.04,79.32-44.08,118.98-66.12,40.92,17.79,81.84,35.57,122.76,53.36v349.14h-241.74v-336.38Z"/>
    <path class="cls-5" d="m1759.18,609.63c-34.08-22.04-68.17-44.08-102.25-66.12-35.16,17.79-70.33,35.57-105.49,53.36v349.14h207.74v-336.38Z"/>
  </g>
  <g id="Layer_5" data-name="Layer 5">
    <path class="cls-2" d="m296.5,625.87v-20.88c41.23-22.43,82.47-44.85,123.7-67.28,35.88,18.17,71.77,36.34,107.65,54.52.31,7.73.63,15.47.94,23.2-36.51-18.17-73.02-36.34-109.54-54.52-40.92,21.65-81.84,43.3-122.76,64.96Z"/>
    <path class="cls-2" d="m1759.18,626.16v-20.88c-34.31-22.14-68.62-44.27-102.93-66.41-36.51,18.17-73.02,36.34-109.54,54.52,1.26,7.35,2.52,14.69,3.78,22.04,34.62-18.17,69.25-36.34,103.87-54.52l104.81,65.25Z"/>
  </g>
  <g id="Layer_2" data-name="Layer 2">
    <rect class="cls-4" x="528.78" y="615.5" width="1033.98" height="344.5"/>
    <path class="cls-11" d="m1562.76,615.5H528.78c-5.35-11.21-10.7-22.43-16.05-33.64h1066.09c-5.35,11.21-10.7,22.43-16.05,33.64Z"/>
    <path class="cls-2" d="m1484.4,502.91c-296.51.02-593.01.05-889.52.07-27.38,26.29-54.77,52.58-82.15,78.88h1066.09c-31.47-26.32-62.95-52.63-94.42-78.95Z"/>
    <path class="cls-11" d="m1563,682.06h-52c-1.67-5.32-3.33-10.65-5-15.97h62c-1.67,5.32-3.33,10.65-5,15.97Z"/>
    <rect class="cls-8" x="1511" y="682.06" width="52" height="277.61"/>
    <path class="cls-11" d="m580.72,682.78h-52c-1.67-5.32-3.33-10.65-5-15.97h62c-1.67,5.32-3.33,10.65-5,15.97Z"/>
    <rect class="cls-8" x="528.72" y="682.78" width="52" height="277.61"/>
    <path class="cls-11" d="m951.72,681.55h-52c-1.67-5.32-3.33-10.65-5-15.97h62c-1.67,5.32-3.33,10.65-5,15.97Z"/>
    <rect class="cls-8" x="899.72" y="681.55" width="52" height="277.61"/>
    <path class="cls-11" d="m1196.72,681.55h-52c-1.67-5.32-3.33-10.65-5-15.97h62c-1.67,5.32-3.33,10.65-5,15.97Z"/>
    <rect class="cls-8" x="1144.72" y="681.55" width="52" height="277.61"/>
  </g>
  <g id="Layer_7" data-name="Layer 7">
    <rect class="cls-1" x="968.27" y="707.06" width="159.58" height="252.86"/>
    <rect class="cls-11" x="984.32" y="732.58" width="128.42" height="227.35"/>
    <rect class="cls-1" x="1217.17" y="705.9" width="119.63" height="164.71"/>
    <rect class="cls-11" x="1229.21" y="723.29" width="96.27" height="129.64"/>
    <rect class="cls-1" x="1371.33" y="705.67" width="119.63" height="164.71"/>
    <rect class="cls-11" x="1383.36" y="723.06" width="96.27" height="129.64"/>
    <rect class="cls-1" x="756.3" y="705.78" width="119.63" height="164.71"/>
    <rect class="cls-11" x="768.33" y="723.17" width="96.27" height="129.64"/>
    <rect class="cls-1" x="599.88" y="705.78" width="119.63" height="164.71"/>
    <rect class="cls-11" x="611.92" y="723.17" width="96.27" height="129.64"/>
    <rect class="cls-1" x="360.71" y="690.82" width="103.73" height="146.94"/>
    <rect class="cls-11" x="371.14" y="706.34" width="83.48" height="115.66"/>
    <path class="cls-10" d="m1476.84,492.47c-5.21-4.87-10.47-6.42-13.22-6.98-24.97.07-49.95.14-74.92.21-259.26.71-518.51,1.43-777.77,2.14-2.16.47-7.02,1.93-11.33,6.96-2.48,2.9-3.92,5.98-4.72,8.12h889.51c-1.31-2.71-3.66-6.79-7.55-10.44Z"/>
    <path class="cls-10" d="m1332,451.12c1.33,17.2,2.67,34.39,4,51.59"/>
    <rect class="cls-1" x="1601.32" y="683.13" width="103.73" height="146.94"/>
    <rect class="cls-11" x="1611.76" y="698.64" width="83.48" height="115.66"/>
  </g>
</svg>