<?xml version="1.0" encoding="UTF-8"?>
<svg xmlns="http://www.w3.org/2000/svg" viewBox="0 0 1974 679.09">
  <defs>
    <style>
      .cls-1 {
        fill: #fff;
      }

      .cls-2 {
        fill: #4d4d4d;
      }

      .cls-3 {
        fill: gray;
      }
    </style>
  </defs>
  <g id="Layer_6" data-name="Layer 6">
    <path class="cls-2" d="m1010,533.34l374,44.66,166.54,22.74s48.46,60.26,23.46,69.26-564-89.17-564-89.17v-47.49Z"/>
    <path class="cls-2" d="m1520,570l-332.06-36.66,10.72-51.49,329.34,23.91s18.08,31.17,22.54,33.7-22.54,30.53-22.54,30.53"/>
    <polygon class="cls-2" points="0 395.47 216 415 216 456.15 0 425.81 0 395.47"/>
    <path class="cls-1" d="m0,409l1527.76,207.78c3.45,1.56,25.99,12.21,32.23,36.85,2.69,10.65,1.33,19.92,0,25.46L0,437.66v-28.66Z"/>
  </g>
  <g id="Layer_7" data-name="Layer 7">
    <path d="m1404,512c-.07,15.71-101.6,30.31-132,34-47,5.7-167.85.82-262-4.13-60.95-3.21-110.7-6.45-122-6.87-211.77-7.86-791.72-85.45-789-113,4.05-41.11,1305.23,33.74,1305,90Z"/>
  </g>
  <g id="Layer_5" data-name="Layer 5">
    <path class="cls-2" d="m374.38,449.15c26,2.33,52,4.67,78,7l6-360c-23,2.67-46,5.33-69,8l-15,345Z"/>
  </g>
  <g id="Layer_1" data-name="Layer 1">
    <path class="cls-3" d="m86.38,415.15s297,38,308,37-8-342,20-351-281,33-318,49-10,265-10,265Z"/>
    <path class="cls-3" d="m462.38,91.15s-20,58-17,81-.31,290.87-.31,290.87c0,0,460.31,48.13,472.31,49.13s267,16,338,11,122-1,143-17-11-126-11-126c0,0-219-348-297-360-78-12-138-30-628,71Z"/>
  </g>
  <g id="Layer_3" data-name="Layer 3">
    <path class="cls-1" d="m1010,11c17.28-3.54,42.17-6.85,71.89-4.64,0,0,46.35,3.6,95.11,25.64,85.24,38.54,138.57,120.72,166,163,0,0,51.68,79.65,77,204,5.58,27.39,10.31,61.47-8,76-9.91,7.86-23.41,7.49-33,6,0,0-50-27-76-107-5.69-17.52-43.84-138.58-107-230-51.37-74.36-99.74-100.95-118-110-26.64-13.2-50.89-19.62-68-23Z"/>
    <path class="cls-1" d="m986,111l-8,231,273,8s-47-210-114-230-151-9-151-9Z"/>
    <path class="cls-1" d="m892,494l-121-19s-8-312,6-332,115-7.96,115-7.96c0,0,6,336.96,0,358.96Z"/>
    <path class="cls-1" d="m471,357c1.67-63.33,3.33-126.67,5-190,44.67-4.67,89.33-9.33,134-14-2,68.67-4,137.33-6,206-44.33-.67-88.67-1.33-133-2Z"/>
    <path class="cls-1" d="m617.88,356.88c1.67-66.98,3.33-133.95,5-200.93,44.67-4.94,89.33-9.87,134-14.81-2,72.62-4,145.23-6,217.85-44.33-.71-88.67-1.41-133-2.12Z"/>
    <path class="cls-1" d="m174,357.3c1.01-53.8,2.01-107.61,3.02-161.41,26.99-3.96,53.99-7.93,80.98-11.89-1.21,58.33-2.42,116.67-3.63,175-26.79-.57-53.58-1.13-80.37-1.7Z"/>
    <path class="cls-1" d="m368,443c-31.87-4.63-63.73-9.26-95.6-13.89,0,0-6.31-228.05,4.74-242.67,11.05-14.62,90.76-5.82,90.76-5.82,1.09,40.82,1.71,82.55,1.78,125.16.08,46.8-.51,92.56-1.67,137.22Z"/>
    <path class="cls-1" d="m161.93,415c-20.24-3.73-40.48-7.45-60.72-11.18,0,0-4.01-183.53,3.01-195.29,7.02-11.76,57.65-4.68,57.65-4.68.69,32.85,1.08,66.43,1.13,100.72.05,37.67-.32,74.49-1.06,110.43Z"/>
  </g>
</svg>