<?xml version="1.0" encoding="UTF-8"?>
<svg xmlns="http://www.w3.org/2000/svg" viewBox="0 0 1802.46 1045">
  <defs>
    <style>
      .cls-1 {
        fill: #658751;
      }

      .cls-2 {
        fill: #7c7c7c;
      }

      .cls-3 {
        fill: #aa5a00;
        stroke: #aa5a00;
        stroke-miterlimit: 10;
      }

      .cls-4 {
        fill: #8e8e8e;
      }

      .cls-5 {
        fill: #999;
      }

      .cls-6 {
        fill: #759b61;
      }
    </style>
  </defs>
  <g id="Layer_3" data-name="Layer 3">
    <path class="cls-6" d="m326.56,1027.78c-12.46-13.01-30.26-34.89-42-66-26.13-69.28-14.86-165.12,34-192,41.44-22.79,86.94,22.72,115-1,34.88-29.48-25.91-107.82,13-171,26.94-43.75,89.29-60.12,131-60,60.88.18,84.38,35.55,108,22,39.95-22.92-23.93-126.42,21-200,52.89-86.6,238.32-102.38,314.41-31.78,27.19,25.23,19.33,41.91,51,67,69.38,54.96,150.37,9.17,178.59,48.78,23.29,32.68-26.17,71.86-32,170-3.57,60.04,8.05,157.53,56,176,42.29,16.28,70.96-45.02,163-50,22.28-1.21,77.68-4.2,116,30,47,41.95,54.65,103.11,57,131,4.29,50.98-9.12,91.55-18,113-43.23.48-86.46.96-129.68,1.43-378.77,4.19-757.54,8.38-1136.32,12.57Z"/>
    <path class="cls-1" d="m336.97,1000c-25.94-35.47-17.4-101.73,15-122,30.26-18.93,81.04,2.45,106,18,29.24,18.22,37.7,37.56,49,34,22.33-7.04-2.76-85.01,32-110,25.14-18.07,77.16-5.27,98,27,28.36,43.92-13.6,104.43-19,112-63.24,88.64-234.53,104.56-281,41Z"/>
    <path class="cls-1" d="m719.97,942c-14.3,2.06-48.41,7.62-72-12-47.36-39.4-35.1-166.04,21-196,51.79-27.66,103.65,47.02,172,20,60.47-23.9,52.68-95.3,110-110,45.91-11.77,106.87,19.67,129,64,26.85,53.78-18.21,96.98,9,141,25.46,41.19,90.15,44.22,128,46,112.83,5.3,157.13-53.79,246-37,25.66,4.85,82.89,11.37,98,49,12.36,30.78-7.53,70.97-31,93-45.76,42.96-115.9,27.03-227,10-340.74-52.23-511.12-78.35-583-68Z"/>
  </g>
  <g id="Layer_2" data-name="Layer 2">
    <path class="cls-4" d="m394.97,1009c-4.12-17.55,33.03-40.97,56-54,75.65-21.99,158.82-41.22,249-55,316.72-48.38,591.09-9.77,788,39,25.23,19.71,57.02,47.37,51,60-7.36,15.45-67.67.74-84-3-64.98-14.88-109.27-10.18-526,13-428.87,23.85-527.71,26.81-534,0Z"/>
  </g>
  <g id="Layer_1" data-name="Layer 1">
    <path class="cls-2" d="m876.81,182.9c3.02,207.29,6.04,414.59,9.07,621.88,25.83.42,51.65.85,77.48,1.27-14.03-208.14-28.06-416.28-42.09-624.43-14.82.42-29.64.85-44.46,1.27Z"/>
    <path class="cls-4" d="m974.94,770.98c-17.36-.42-34.72-.85-52.08-1.27-8.04-52.5-16.09-105-24.13-157.5-3.81-151.15-7.62-302.29-11.43-453.44,9.31-52.92,18.63-105.85,27.94-158.77,13.97,51.65,27.94,103.31,41.91,154.96,8.47,150.3,16.94,300.6,25.4,450.9-2.54,55.04-5.08,110.08-7.62,165.12Z"/>
    <path class="cls-3" d="m1747.47,1024.5c-210.15-73.86-388.97-62.46-482-58-195.83,9.38-463.28,9.58-807,8-115.11-3.11-248.22,7.89-390,49-22.58,6.55-44.42,13.58-65.54,21h1797c-11.03-4.54-29.43-11.9-52.46-20Z"/>
    <path class="cls-5" d="m821.26,961.5c-.42-17.78-.85-35.56-1.27-53.35,98.22-.42,196.45-.85,294.67-1.27.42,14.82.85,29.64,1.27,44.46-98.22,3.39-196.45,6.77-294.67,10.16Z"/>
    <path class="cls-2" d="m738.7,950.07c27.52,3.81,55.04,7.62,82.56,11.43-.42-17.78-.85-35.56-1.27-53.35-25.83-.85-51.65-1.69-77.48-2.54-1.27,14.82-2.54,29.64-3.81,44.46Z"/>
    <path class="cls-4" d="m1052.42,800.19c.42,35.56.85,71.13,1.27,106.69-79.17.42-158.34.85-237.52,1.27-.85-36.41-1.69-72.82-2.54-109.23,79.6.42,159.19.85,238.79,1.27Z"/>
    <path class="cls-2" d="m800.93,800.19c-1.27,35.56-2.54,71.13-3.81,106.69,6.35.42,12.7.85,19.05,1.27-.85-36.41-1.69-72.82-2.54-109.23-4.23.42-8.47.85-12.7,1.27Z"/>
    <path class="cls-4" d="m832.35,64.78c16.09,44.46,32.18,88.91,48.27,133.37.85,140.56,1.69,281.13,2.54,421.69-19.05,52.08-38.1,104.15-57.16,156.23,2.12-237.09,4.23-474.19,6.35-711.28Z"/>
  </g>
  <g id="Layer_4" data-name="Layer 4">
    <path class="cls-2" d="m934.97,751h25c1.67-50.33,3.33-100.67,5-151-18.67-1.67-37.33-3.33-56-5,8.67,52,17.33,104,26,156Z"/>
    <path class="cls-2" d="m911.97,575c17,1.67,34,3.33,51,5-6.33-133-12.67-266-19-399-13.67.33-27.33.67-41,1l9,393Z"/>
    <path class="cls-2" d="m903.97,159h37c-8-35.33-16-70.67-24-106-4.33,35.33-8.67,70.67-13,106Z"/>
  </g>
</svg>