<?xml version="1.0" encoding="UTF-8"?>
<svg id="Layer_3" data-name="Layer 3" xmlns="http://www.w3.org/2000/svg" viewBox="0 0 1984.08 1079">
  <defs>
    <style>
      .cls-1 {
        fill: #630;
      }

      .cls-1, .cls-2 {
        stroke: #630;
      }

      .cls-1, .cls-2, .cls-3 {
        stroke-miterlimit: 10;
      }

      .cls-4 {
        fill: #e8f0fc;
      }

      .cls-5 {
        fill: #461a00;
      }

      .cls-2 {
        fill: #87490a;
      }

      .cls-3 {
        stroke: #aa5a00;
      }

      .cls-3, .cls-6 {
        fill: #aa5a00;
      }

      .cls-7 {
        fill: #a1a4a8;
      }

      .cls-8 {
        fill: #e5e5da;
      }

      .cls-9 {
        fill: ivory;
      }

      .cls-10 {
        fill: #f8fcff;
      }
    </style>
  </defs>
  <path class="cls-9" d="m1181.65,925.46h400.24s0-266.27,0-266.27c-66-35.17-132.01-70.34-198.01-105.5-67.41,35.17-134.82,70.34-202.23,105.5,0,88.76,0,177.51,0,266.27Z"/>
  <rect class="cls-9" x="601.99" y="39" width="8.63" height="74.86"/>
  <rect class="cls-9" x="601.17" y="43.76" width="10.35" height="39.61" transform="translate(669.91 -542.78) rotate(90)"/>
  <rect class="cls-9" x="1064.17" y="120.38" width="8.63" height="74.86"/>
  <rect class="cls-9" x="1063.35" y="125.14" width="10.35" height="39.61" transform="translate(1213.47 -923.58) rotate(90)"/>
  <polyline class="cls-9" points="516.68 913.96 736.56 913.96 736.56 249.55 472.61 249.55 472.61 913.96 516.68 913.96"/>
  <path class="cls-9" d="m738.28,228.5h0c0-59.43-59.09-107.61-131.97-107.61h0c-72.89,0-131.97,48.18-131.97,107.61h0"/>
  <path class="cls-8" d="m473.32,226.18c10.92.78,21.83,1.56,32.75,2.34,2.38-13.18,8.11-34.55,23.39-56.15,26.45-37.39,63.73-50.33,76.8-54.21h0c-8.24,0-77.85,1.04-113.48,51.84-6.2,8.84-17.08,27.33-19.47,56.17Z"/>
  <path class="cls-10" d="m473.12,223.34h266.39c5.92,5.62,11.84,11.24,17.76,16.86-5.92,5.62-11.84,11.24-17.76,16.86h-266.39c-5.92-5.62-11.84-11.24-17.76-16.86,5.92-5.62,11.84-11.24,17.76-16.86Z"/>
  <path class="cls-4" d="m757.26,240.19c-5.92,5.62-11.84,11.24-17.76,16.86h-266.39c-5.92-5.62-11.84-11.24-17.76-16.86h301.9Z"/>
  <path class="cls-10" d="m596.41,106.84h19.79c.44,2.67.88,5.34,1.32,8.01-.44,2.67-.88,5.34-1.32,8.01h-19.79c-.44-2.67-.88-5.34-1.32-8.01.44-2.67.88-5.34,1.32-8.01Z"/>
  <path class="cls-4" d="m617.52,114.85c-.44,2.67-.88,5.34-1.32,8.01h-19.79c-.44-2.67-.88-5.34-1.32-8.01h22.43Z"/>
  <rect class="cls-8" x="471.73" y="256.57" width="32.75" height="608.26"/>
  <rect class="cls-8" x="598.06" y="132.58" width="14.04" height="262.02" transform="translate(341.49 868.67) rotate(-90)"/>
  <path class="cls-9" d="m738.28,925.65h652.11v-495.96c-108.69-56.15-217.37-112.29-326.06-168.44-108.69,56.15-217.37,112.29-326.06,168.44v495.96Z"/>
  <path class="cls-8" d="m1077.9,275.32c-.2,6.8-.4,13.6-.59,20.4-111.96,55.92-223.92,111.85-335.88,167.77-1.54-6.03-3.08-12.06-4.62-18.1,113.7-56.69,227.39-113.38,341.09-170.07Z"/>
  <path class="cls-8" d="m1054.76,268.68c-.39,7.29-.78,14.57-1.16,21.86,111.13,57.31,222.25,114.62,333.38,171.93,1.74-6.7,3.48-13.4,5.22-20.1-112.48-57.89-224.96-115.79-337.43-173.68Z"/>
  <polygon class="cls-7" points="639.95 358.48 583.64 358.48 574.39 358.48 574.39 495.19 583.06 495.19 639.95 495.19 639.95 358.48"/>
  <path class="cls-7" d="m639.95,359.42h0c0-18.03-14.68-32.65-32.78-32.65h0c-18.1,0-32.78,14.62-32.78,32.65h0"/>
  <path class="cls-4" d="m582.32,495.19l.59-136.71c.21-3.44,1.09-10.09,5.29-16.91,6.23-10.14,15.58-13.79,18.55-14.81-1.93-.06-15.76-.27-25.45,11.24-7.28,8.65-7.72,18.58-7.75,21.41v135.78h8.78Z"/>
  <path class="cls-10" d="m738.87,421.63c109.64-55.02,219.28-110.04,328.92-165.06.43,2.34.87,4.68,1.3,7.02-6.18,7.8-12.37,15.59-18.55,23.39-105.46,53.7-210.91,107.4-316.37,161.1-.82-.99-3.84-4.92-3.22-11.43.8-8.48,7.1-14.28,7.93-15.02Z"/>
  <path class="cls-4" d="m1068.96,263.11c-.38,5.65-.76,11.31-1.14,16.96-111,56.89-221.99,113.78-332.99,170.67-1.34-4.85-2.68-9.71-4.02-14.56,112.72-57.69,225.43-115.38,338.15-173.07Z"/>
  <path class="cls-10" d="m1395.56,421.13c-108.83-54.64-217.67-109.28-326.5-163.92-.42-.21-.85-.43-1.27-.64v7.02c5.37,7.63,10.74,15.26,16.11,22.89,105.46,53.7,210.91,107.4,316.37,161.1.82-.99,3.84-4.92,3.22-11.43-.8-8.48-7.1-14.28-7.93-15.02Z"/>
  <path class="cls-4" d="m1067.79,263.59v16.38c110.6,56.76,221.21,113.52,331.81,170.28,1.34-4.85,2.68-9.71,4.02-14.56-111.94-57.36-223.89-114.73-335.83-172.09Z"/>
  <path class="cls-10" d="m1583.27,655.25c-89.39-44.55-132.98-66.27-203.19-101.27-.26-.13-.53-.26-.79-.39-.14,1.96-.28,3.93-.43,5.89,3.04,5.81,6.09,11.62,9.13,17.43,65.58,33.34,131.17,66.68,196.75,100.03.6-.93,2.8-4.56,2.8-9.96,0-7.03-3.77-11.2-4.27-11.73Z"/>
  <path class="cls-4" d="m1378.86,561.83c-.33,4.58-.66,9.17-.99,13.75,68.76,35.34,137.52,70.67,206.28,106.01,1.17-4.22,2.34-8.45,3.51-12.67-69.6-35.7-139.19-71.39-208.79-107.09Z"/>
  <path class="cls-8" d="m1581.89,680.11c-68.78-36.47-137.56-72.94-206.35-109.41-.36,4.67-.73,9.34-1.09,14.01,69.15,35.79,138.29,71.58,207.44,107.37"/>
  <g>
    <rect class="cls-8" x="1342.53" y="442.11" width="63.15" height="442.16"/>
    <path class="cls-8" d="m1409.76,433.37c-1.4,3.32-2.8,6.65-4.19,9.97h-62.91c-1.4-3.32-2.8-6.65-4.19-9.97h71.3Z"/>
    <path class="cls-8" d="m1415.87,424.09c-1.68,3.32-3.36,6.65-5.03,9.97h-75.49c-1.68-3.32-3.36-6.65-5.03-9.97h85.56Z"/>
  </g>
  <g>
    <path class="cls-8" d="m708.02,379.86c-3.77-14.21,7.56-31.82,17.57-31.63,9.86.19,20.38,17.69,16.32,31.63-2.01,6.9-8.6,16.38-17.57,16.11-8.73-.26-14.59-9.57-16.32-16.11Z"/>
    <path class="cls-8" d="m741.92,379.62c-2.51,9.03-5.02,18.07-7.53,27.1h-18.84c-2.51-9.03-5.02-18.07-7.53-27.1h33.91Z"/>
  </g>
  <g>
    <path class="cls-8" d="m712.22,406.29h27.9c.62,2.66,1.24,5.31,1.86,7.97-.62,2.66-1.24,5.31-1.86,7.97h-27.9c-.62-2.66-1.24-5.31-1.86-7.97.62-2.66,1.24-5.31,1.86-7.97Z"/>
    <path class="cls-8" d="m741.97,414.27c-.62,2.66-1.24,5.31-1.86,7.97h-27.9c-.62-2.66-1.24-5.31-1.86-7.97h31.62Z"/>
  </g>
  <g>
    <rect class="cls-8" x="692.07" y="439.77" width="62.63" height="442.16"/>
    <path class="cls-8" d="m758.74,431.03c-1.39,3.32-2.77,6.65-4.16,9.97h-62.4c-1.39-3.32-2.77-6.65-4.16-9.97h70.72Z"/>
    <path class="cls-8" d="m764.8,421.75c-1.66,3.32-3.33,6.65-4.99,9.97h-74.88c-1.66-3.32-3.33-6.65-4.99-9.97h84.86Z"/>
  </g>
  <rect class="cls-4" x="1365.07" y="441.43" width="53.48" height="442.16"/>
  <path class="cls-4" d="m1422,432.69c-1.18,3.32-2.37,6.65-3.55,9.97h-53.28c-1.18-3.32-2.37-6.65-3.55-9.97h60.38Z"/>
  <path class="cls-10" d="m1427.17,423.4c-1.42,3.32-2.84,6.65-4.26,9.97h-63.93c-1.42-3.32-2.84-6.65-4.26-9.97h72.46Z"/>
  <g>
    <path class="cls-10" d="m1378.49,381.82c-3.22-14.21,6.46-31.82,15.01-31.63,8.42.19,17.4,17.69,13.93,31.63-1.72,6.9-7.34,16.38-15.01,16.11-7.46-.26-12.45-9.57-13.93-16.11Z"/>
    <path class="cls-4" d="m1407.44,381.58c-2.14,9.03-4.29,18.07-6.43,27.1h-16.08c-2.14-9.03-4.29-18.07-6.43-27.1h28.95Z"/>
  </g>
  <g>
    <path class="cls-10" d="m1383.04,408.19h19.79c.44,2.67.88,5.34,1.32,8.01-.44,2.67-.88,5.34-1.32,8.01h-19.79c-.44-2.67-.88-5.34-1.32-8.01.44-2.67.88-5.34,1.32-8.01Z"/>
    <path class="cls-4" d="m1404.15,416.19c-.44,2.67-.88,5.34-1.32,8.01h-19.79c-.44-2.67-.88-5.34-1.32-8.01h22.43Z"/>
  </g>
  <rect class="cls-4" x="712.37" y="440.44" width="53.48" height="442.16"/>
  <path class="cls-4" d="m769.3,431.69c-1.18,3.32-2.37,6.65-3.55,9.97h-53.28c-1.18-3.32-2.37-6.65-3.55-9.97h60.38Z"/>
  <path class="cls-10" d="m774.47,422.41c-1.42,3.32-2.84,6.65-4.26,9.97h-63.93c-1.42-3.32-2.84-6.65-4.26-9.97h72.46Z"/>
  <g>
    <path class="cls-10" d="m725.8,380.83c-3.22-14.21,6.46-31.82,15.01-31.63,8.42.19,17.4,17.69,13.93,31.63-1.72,6.9-7.34,16.38-15.01,16.11-7.46-.26-12.45-9.57-13.93-16.11Z"/>
    <path class="cls-4" d="m754.74,380.59c-2.14,9.03-4.29,18.07-6.43,27.1h-16.08c-2.14-9.03-4.29-18.07-6.43-27.1h28.95Z"/>
  </g>
  <g>
    <path class="cls-10" d="m730.34,407.19h19.79c.44,2.67.88,5.34,1.32,8.01-.44,2.67-.88,5.34-1.32,8.01h-19.79c-.44-2.67-.88-5.34-1.32-8.01.44-2.67.88-5.34,1.32-8.01Z"/>
    <path class="cls-4" d="m751.45,415.2c-.44,2.67-.88,5.34-1.32,8.01h-19.79c-.44-2.67-.88-5.34-1.32-8.01h22.43Z"/>
  </g>
  <g>
    <path class="cls-10" d="m1053.16,222.17c-3.22-14.21,6.46-31.82,15.01-31.63,8.42.19,17.4,17.69,13.93,31.63-1.72,6.9-7.34,16.38-15.01,16.11-7.46-.26-12.45-9.57-13.93-16.11Z"/>
    <path class="cls-4" d="m1082.1,221.93c-2.14,9.03-4.29,18.07-6.43,27.1h-16.08c-2.14-9.03-4.29-18.07-6.43-27.1h28.95Z"/>
  </g>
  <g>
    <path class="cls-10" d="m1057.71,248.54h19.79c.44,2.67.88,5.34,1.32,8.01-.44,2.67-.88,5.34-1.32,8.01h-19.79c-.44-2.67-.88-5.34-1.32-8.01.44-2.67.88-5.34,1.32-8.01Z"/>
    <path class="cls-4" d="m1078.81,256.54c-.44,2.67-.88,5.34-1.32,8.01h-19.79c-.44-2.67-.88-5.34-1.32-8.01h22.43Z"/>
  </g>
  <rect class="cls-2" x="998.78" y="672.99" width="139.74" height="236.29"/>
  <rect class="cls-1" x="999.65" y="674.16" width="8.63" height="236.29"/>
  <rect class="cls-1" x="1062.8" y="611.5" width="11.7" height="138.01" transform="translate(1749.16 -388.14) rotate(90)"/>
  <rect class="cls-1" x="1129.03" y="676.5" width="8.63" height="215.23"/>
  <rect class="cls-2" x="1462.58" y="729.14" width="58.93" height="171.95"/>
  <rect class="cls-1" x="1462.94" y="732.25" width="3.64" height="155.84"/>
  <rect class="cls-1" x="1488.18" y="704.99" width="7.71" height="58.2" transform="translate(2226.14 -757.95) rotate(90)"/>
  <rect class="cls-1" x="1517.19" y="731.45" width="3.95" height="160.28"/>
  <g>
    <rect class="cls-2" x="1227.33" y="520.93" width="68.18" height="111.8"/>
    <rect class="cls-1" x="1227.37" y="521.48" width="4.59" height="105.89"/>
    <rect class="cls-1" x="1258.65" y="490.81" width="5.53" height="67.34" transform="translate(1785.9 -736.94) rotate(90)"/>
    <rect class="cls-1" x="1291.2" y="522.59" width="3.89" height="109.46"/>
    <rect class="cls-1" x="1256.93" y="596.65" width="5.88" height="62.65" transform="translate(1887.85 -631.9) rotate(90)"/>
  </g>
  <g>
    <rect class="cls-2" x="1103.92" y="520.78" width="68.18" height="111.8"/>
    <rect class="cls-1" x="1103.95" y="521.33" width="4.59" height="105.89"/>
    <rect class="cls-1" x="1135.24" y="490.66" width="5.53" height="67.34" transform="translate(1662.34 -613.68) rotate(90)"/>
    <rect class="cls-1" x="1167.78" y="522.44" width="3.89" height="109.46"/>
    <rect class="cls-1" x="1133.52" y="596.5" width="5.88" height="62.65" transform="translate(1764.28 -508.64) rotate(90)"/>
  </g>
  <g>
    <rect class="cls-2" x="838.24" y="518.44" width="68.18" height="111.8"/>
    <rect class="cls-1" x="838.28" y="518.99" width="4.59" height="105.89"/>
    <rect class="cls-1" x="869.56" y="488.32" width="5.53" height="67.34" transform="translate(1394.32 -350.34) rotate(90)"/>
    <rect class="cls-1" x="902.11" y="520.1" width="3.89" height="109.46"/>
    <rect class="cls-1" x="867.85" y="594.16" width="5.88" height="62.65" transform="translate(1496.27 -245.3) rotate(90)"/>
  </g>
  <g>
    <rect class="cls-2" x="964.11" y="520.78" width="68.18" height="111.8"/>
    <rect class="cls-1" x="964.14" y="521.33" width="4.59" height="105.89"/>
    <rect class="cls-1" x="995.43" y="490.66" width="5.53" height="67.34" transform="translate(1522.53 -473.86) rotate(90)"/>
    <rect class="cls-1" x="1027.97" y="522.44" width="3.89" height="109.46"/>
    <rect class="cls-1" x="993.71" y="596.5" width="5.88" height="62.65" transform="translate(1624.47 -368.83) rotate(90)"/>
  </g>
  <polyline class="cls-5" points="1020.78 671.7 1020.78 962.6 1040.17 962.6 1040.17 671.77"/>
  <polyline class="cls-8" points="1040.17 671.77 1040.17 640.24 1020.78 640.24 1020.78 671.7"/>
  <polyline class="cls-8" points="997.46 681.69 974.72 681.69 974.72 698.73 997.56 698.73"/>
  <polyline class="cls-5" points="997.56 698.73 1082.33 698.73 1082.33 681.69 997.46 681.69"/>
  <ellipse class="cls-4" cx="1067.11" cy="373.54" rx="33.94" ry="37.43"/>
  <ellipse class="cls-7" cx="1066.05" cy="372.37" rx="20.15" ry="22.22"/>
  <path class="cls-3" d="m313.96,915.48c-32.18,26.94-33.6,55.29-68.54,97.23-26.72,32.08-54.82,53.04-74.5,65.79h1786.57c-5.38-42.75-21.24-66.78-33.99-80.58-30.93-33.47-66.71-30.84-125.9-64.21-33.42-18.84-57.58-38.84-71.77-51.62-12.37-5.33-24.74-10.65-37.11-15.98-422.77-.41-845.55-.81-1268.32-1.22-23.59,4.76-66.12,16.82-106.45,50.58Z"/>
  <rect class="cls-6" x="1059.5" y="588.77" width="19.39" height="344.07"/>
  <rect class="cls-6" x="1003.96" y="640.24" width="127.66" height="23.11"/>
</svg>